<?xml version="1.0" encoding="UTF-8"?>
<svg xmlns="http://www.w3.org/2000/svg" xmlns:xlink="http://www.w3.org/1999/xlink" width="255.07pt" height="128.531pt" viewBox="0 0 255.07 128.531" version="1.2">
<defs>
<clipPath id="clip1">
  <path d="M 0 0 L 133 0 L 133 128.0625 L 0 128.0625 Z M 0 0 "/>
</clipPath>
<clipPath id="clip2">
  <path d="M 121 0 L 254.144531 0 L 254.144531 128.0625 L 121 128.0625 Z M 121 0 "/>
</clipPath>
<clipPath id="clip3">
  <path d="M 126 63 L 128 63 L 128 128.0625 L 126 128.0625 Z M 126 63 "/>
</clipPath>
</defs>
<g id="surface1">
<g clip-path="url(#clip1)" clip-rule="nonzero">
<path style="fill:none;stroke-width:0.3985;stroke-linecap:butt;stroke-linejoin:miter;stroke:rgb(0%,0%,0%);stroke-opacity:1;stroke-miterlimit:10;" d="M -0.00138311 0.000104761 C -0.00138311 35.163102 -28.503444 63.669083 -63.670362 63.669083 C -98.833359 63.669083 -127.33934 35.163102 -127.33934 0.000104761 C -127.33934 -35.162892 -98.833359 -63.668874 -63.670362 -63.668874 C -28.503444 -63.668874 -0.00138311 -35.162892 -0.00138311 0.000104761 Z M -0.00138311 0.000104761 " transform="matrix(0.996364,0,0,-0.996364,127.071691,64.031354)"/>
</g>
<g clip-path="url(#clip2)" clip-rule="nonzero">
<path style="fill:none;stroke-width:0.3985;stroke-linecap:butt;stroke-linejoin:miter;stroke:rgb(0%,0%,0%);stroke-opacity:1;stroke-miterlimit:10;" d="M 127.336574 0.000104761 C 127.336574 35.163102 98.830592 63.669083 63.667596 63.669083 C 28.504599 63.669083 -0.00138311 35.163102 -0.00138311 0.000104761 C -0.00138311 -35.162892 28.504599 -63.668874 63.667596 -63.668874 C 98.830592 -63.668874 127.336574 -35.162892 127.336574 0.000104761 Z M 127.336574 0.000104761 " transform="matrix(0.996364,0,0,-0.996364,127.071691,64.031354)"/>
</g>
<path style="fill:none;stroke-width:1.19553;stroke-linecap:butt;stroke-linejoin:miter;stroke:rgb(0%,0%,0%);stroke-opacity:1;stroke-miterlimit:10;" d="M -0.00138311 0.000104761 L -0.00138311 63.669083 " transform="matrix(0.996364,0,0,-0.996364,127.071691,64.031354)"/>
<g clip-path="url(#clip3)" clip-rule="nonzero">
<path style="fill:none;stroke-width:1.19553;stroke-linecap:butt;stroke-linejoin:miter;stroke:rgb(0%,0%,0%);stroke-opacity:1;stroke-miterlimit:10;" d="M -0.00138311 0.000104761 L -0.00138311 -63.668874 " transform="matrix(0.996364,0,0,-0.996364,127.071691,64.031354)"/>
</g>
</g>
</svg>
