<?xml version="1.0" encoding="UTF-8"?>
<svg xmlns="http://www.w3.org/2000/svg" xmlns:xlink="http://www.w3.org/1999/xlink" width="253.514pt" height="22.702pt" viewBox="0 0 253.514 22.702" version="1.2">
<defs>
<clipPath id="clip1">
  <path d="M 1.402344 0 L 127 0 L 127 22.40625 L 1.402344 22.40625 Z M 1.402344 0 "/>
</clipPath>
<clipPath id="clip2">
  <path d="M 91 1 L 129 1 L 129 22.40625 L 91 22.40625 Z M 91 1 "/>
</clipPath>
<clipPath id="clip3">
  <path d="M 126 0 L 251.632812 0 L 251.632812 22.40625 L 126 22.40625 Z M 126 0 "/>
</clipPath>
<clipPath id="clip4">
  <path d="M 124 1 L 162 1 L 162 22.40625 L 124 22.40625 Z M 124 1 "/>
</clipPath>
</defs>
<g id="surface1">
<g clip-path="url(#clip1)" clip-rule="nonzero">
<path style="fill:none;stroke-width:1.19553;stroke-linecap:butt;stroke-linejoin:miter;stroke:rgb(0%,0%,0%);stroke-opacity:1;stroke-miterlimit:10;" d="M 149.400593 99.601186 L 99.599089 99.601186 M 99.599089 99.601186 L 49.801542 99.601186 C 44.300582 99.601186 39.84045 104.061318 39.84045 109.562279 C 39.84045 115.06324 44.300582 119.519414 49.801542 119.519414 " transform="matrix(0.987043,0,0,-0.987043,-37.332069,118.560701)"/>
</g>
<path style=" stroke:none;fill-rule:nonzero;fill:rgb(100%,100%,100%);fill-opacity:1;" d="M 111.699219 20.25 C 111.699219 19.386719 111 18.683594 110.132812 18.683594 C 109.269531 18.683594 108.566406 19.386719 108.566406 20.25 C 108.566406 21.117188 109.269531 21.816406 110.132812 21.816406 C 111 21.816406 111.699219 21.117188 111.699219 20.25 Z M 111.699219 20.25 "/>
<g clip-path="url(#clip2)" clip-rule="nonzero">
<path style="fill:none;stroke-width:1.19553;stroke-linecap:butt;stroke-linejoin:miter;stroke:rgb(0%,0%,0%);stroke-opacity:1;stroke-miterlimit:10;" d="M 150.987561 99.601186 C 150.987561 100.4758 150.279164 101.188154 149.400593 101.188154 C 148.52598 101.188154 147.813626 100.4758 147.813626 99.601186 C 147.813626 98.722616 148.52598 98.014219 149.400593 98.014219 C 150.279164 98.014219 150.987561 98.722616 150.987561 99.601186 Z M 150.987561 99.601186 " transform="matrix(0.987043,0,0,-0.987043,-37.332069,118.560701)"/>
</g>
<g clip-path="url(#clip3)" clip-rule="nonzero">
<path style="fill:none;stroke-width:1.19553;stroke-linecap:butt;stroke-linejoin:miter;stroke:rgb(0%,0%,0%);stroke-opacity:1;stroke-miterlimit:10;" d="M 182.600277 99.601186 L 232.401781 99.601186 M 232.401781 99.601186 L 282.203286 99.601186 C 287.704247 99.601186 292.164378 104.061318 292.164378 109.562279 C 292.164378 115.06324 287.704247 119.519414 282.203286 119.519414 " transform="matrix(0.987043,0,0,-0.987043,-37.332069,118.560701)"/>
</g>
<path style=" stroke:none;fill-rule:nonzero;fill:rgb(100%,100%,100%);fill-opacity:1;" d="M 144.46875 20.25 C 144.46875 19.386719 143.769531 18.683594 142.902344 18.683594 C 142.039062 18.683594 141.335938 19.386719 141.335938 20.25 C 141.335938 21.117188 142.039062 21.816406 142.902344 21.816406 C 143.769531 21.816406 144.46875 21.117188 144.46875 20.25 Z M 144.46875 20.25 "/>
<g clip-path="url(#clip4)" clip-rule="nonzero">
<path style="fill:none;stroke-width:1.19553;stroke-linecap:butt;stroke-linejoin:miter;stroke:rgb(0%,0%,0%);stroke-opacity:1;stroke-miterlimit:10;" d="M 184.187245 99.601186 C 184.187245 100.4758 183.478848 101.188154 182.600277 101.188154 C 181.725664 101.188154 181.013309 100.4758 181.013309 99.601186 C 181.013309 98.722616 181.725664 98.014219 182.600277 98.014219 C 183.478848 98.014219 184.187245 98.722616 184.187245 99.601186 Z M 184.187245 99.601186 " transform="matrix(0.987043,0,0,-0.987043,-37.332069,118.560701)"/>
</g>
<path style="fill:none;stroke-width:1.19553;stroke-linecap:butt;stroke-linejoin:miter;stroke:rgb(0%,0%,0%);stroke-opacity:1;stroke-miterlimit:10;" d="M 49.801542 119.519414 L 282.203286 119.519414 " transform="matrix(0.987043,0,0,-0.987043,-37.332069,118.560701)"/>
</g>
</svg>
